<?xml version="1.0" encoding="UTF-8"?>
<!DOCTYPE svg PUBLIC "-//W3C//DTD SVG 1.1//EN" "http://www.w3.org/Graphics/SVG/1.1/DTD/svg11.dtd">
<!-- Creator: CorelDRAW -->
<svg xmlns="http://www.w3.org/2000/svg" xml:space="preserve" width="0.249992in" height="0.249992in" version="1.1" style="shape-rendering:geometricPrecision; text-rendering:geometricPrecision; image-rendering:optimizeQuality; fill-rule:evenodd; clip-rule:evenodd"
viewBox="0 0 249.99 249.99"
 xmlns:xlink="http://www.w3.org/1999/xlink"
 xmlns:xodm="http://www.corel.com/coreldraw/odm/2003">
 <defs>
  <style type="text/css">
   <![CDATA[
    .fil1 {fill:none}
    .fil0 {fill:#EC2425}
   ]]>
  </style>
 </defs>
 <g id="Layer_x0020_1">
  <metadata id="CorelCorpID_0Corel-Layer"/>
  <g id="_105553326980096">
   <path class="fil0" d="M15.95 129.83c0.88,36.45 24.03,71.33 51.47,87.43 9.9,6.48 22.8,6.15 31.31,-1.52 4.95,-4.46 4.69,-8.93 -0.19,-11.78 -1.56,-0.91 -3.14,-1.34 -4.79,-2 -5.53,-2.22 -11.52,-5.92 -12.95,-9.33 7.37,2.77 14.76,4.53 22.64,4.17 4.98,-0.22 8.03,-1.64 9.88,-5.12 1.48,-2.79 2.18,-7.19 2.5,-10.3 2.19,-21.6 -10.79,-42.57 -34.69,-43.41 -7.92,-0.28 -15.74,1.06 -23.64,1.09 -14.2,0.07 -29.13,0.02 -41.53,-9.24zm135.11 -1.17c-15.27,0.06 -22.26,11.92 -21.99,22.2 0.39,15.28 -1.46,30.37 -6.27,44.98 -4.84,14.68 -12.02,26.96 -26.92,33.98 64.67,17.19 129.36,-23.72 138,-93.84 0.18,-1.46 0.42,-3.46 0.39,-4.85 -0.04,-1.5 -0.59,-2.69 -2.92,-2.58 -26.76,0.13 -53.52,0 -80.29,0.11zm-21.99 -30.89c-0.26,10.29 6.72,22.14 21.99,22.2 26.76,0.11 53.53,-0.02 80.29,0.11 2.32,0.11 2.88,-1.07 2.92,-2.58 0.04,-1.39 -0.2,-3.38 -0.39,-4.85 -8.64,-70.12 -73.33,-111.02 -138,-93.84 14.9,7.01 22.08,19.3 26.92,33.98 4.81,14.6 6.67,29.7 6.27,44.98zm48.11 6.48c-0.28,0.97 -0.4,1.76 -0.63,2.7 -0.16,0.64 -0.48,1.19 -1.37,1.19 -0.89,0 -1.21,-0.55 -1.37,-1.19 -0.23,-0.94 -0.34,-1.73 -0.63,-2.7 -1.13,-3.85 -2.35,-7.67 -4.23,-11.2 -3.8,-7.17 -10.34,-10.48 -17.59,-12.81 -1.72,-0.56 -2.61,-0.63 -4.37,-0.91 -1.16,-0.19 -2.13,-0.58 -2.15,-1.83 0.01,-1.25 0.99,-1.65 2.15,-1.83 1.76,-0.29 2.64,-0.36 4.37,-0.92 7.25,-2.33 13.78,-5.65 17.59,-12.81 1.87,-3.54 3.1,-7.35 4.23,-11.2 0.29,-0.97 0.4,-1.76 0.63,-2.7 0.16,-0.64 0.48,-1.19 1.37,-1.19 0.89,0 1.21,0.55 1.37,1.19 0.23,0.94 0.35,1.73 0.63,2.7 1.13,3.85 2.35,7.67 4.23,11.2 3.8,7.17 10.33,10.48 17.58,12.81 1.72,0.56 2.61,0.63 4.37,0.92 1.16,0.19 2.13,0.58 2.15,1.83 -0.02,1.25 -0.99,1.64 -2.15,1.83 -1.76,0.29 -2.64,0.35 -4.37,0.91 -7.25,2.34 -13.78,5.65 -17.58,12.81 -1.88,3.54 -3.11,7.35 -4.23,11.2zm-148.62 -20.15c0,21.91 17.76,39.66 39.66,39.66 21.91,0 39.66,-17.76 39.66,-39.66 0,-21.9 -17.76,-39.66 -39.66,-39.66 -21.91,0 -39.66,17.76 -39.66,39.66z"/>
   <rect class="fil1" x="0.88" y="0.21" width="250" height="250"/>
  </g>
 </g>
</svg>
